<svg width="99" height="22" viewBox="0 0 99 22" fill="none" xmlns="http://www.w3.org/2000/svg">
<path d="M11.1742 2.22653L13.8628 7.67327L19.8751 8.55205L15.5247 12.7894L16.5514 18.7756L11.1742 15.9478L5.79711 18.7756L6.82381 12.7894L2.47339 8.55205L8.48568 7.67327L11.1742 2.22653Z" fill="#161618"/>
<path d="M30.3161 2.22659L33.0047 7.67333L39.0169 8.55211L34.6665 12.7894L35.6932 18.7756L30.3161 15.9478L24.939 18.7756L25.9657 12.7894L21.6152 8.55211L27.6275 7.67333L30.3161 2.22659Z" fill="#161618"/>
<path d="M49.4582 2.22659L52.1467 7.67333L58.159 8.55211L53.8086 12.7894L54.8353 18.7756L49.4582 15.9478L44.081 18.7756L45.1078 12.7894L40.7573 8.55211L46.7696 7.67333L49.4582 2.22659Z" fill="#161618"/>
<path d="M68.5999 2.22659L71.2885 7.67333L77.3008 8.55211L72.9503 12.7894L73.977 18.7756L68.5999 15.9478L63.2228 18.7756L64.2495 12.7894L59.899 8.55211L65.9113 7.67333L68.5999 2.22659Z" fill="#161618"/>
<path d="M90.2352 7.76956C90.2669 7.8337 90.3285 7.87836 90.3993 7.8887L95.9745 8.70316L91.9403 12.6338C91.8891 12.6838 91.8657 12.7557 91.8778 12.8262L92.829 18.377L87.8427 15.7549C87.7953 15.7302 87.7411 15.724 87.6903 15.7364L87.6405 15.7549L82.6532 18.377L83.6053 12.8262C83.6175 12.7556 83.5942 12.6838 83.5428 12.6338L79.5077 8.70316L85.0848 7.8887C85.1555 7.87832 85.2163 7.8336 85.2479 7.76956L87.7411 2.7178L90.2352 7.76956Z" stroke="#161618" stroke-width="0.435043" stroke-linecap="round" stroke-linejoin="round"/>
<path d="M87.7417 15.9478L87.7417 2.22659L85.0532 7.67333L79.0409 8.55211L83.3913 12.7894L82.3646 18.7756L87.7417 15.9478Z" fill="#161618"/>
</svg>
