<svg width="149" height="148" viewBox="0 0 149 148" fill="none" xmlns="http://www.w3.org/2000/svg">
<g filter="url(#filter0_d_5_7291)">
<circle cx="74.3" cy="59" r="30" fill="#FBFBFB"/>
</g>
<g clip-path="url(#clip0_5_7291)">
<path d="M63.8 57.375C65.4547 57.375 66.8 55.9176 66.8 54.125C66.8 52.3324 65.4547 50.875 63.8 50.875C62.1453 50.875 60.8 52.3324 60.8 54.125C60.8 55.9176 62.1453 57.375 63.8 57.375ZM84.8 57.375C86.4547 57.375 87.8 55.9176 87.8 54.125C87.8 52.3324 86.4547 50.875 84.8 50.875C83.1453 50.875 81.8 52.3324 81.8 54.125C81.8 55.9176 83.1453 57.375 84.8 57.375ZM86.3 59H83.3C82.475 59 81.7297 59.3605 81.1859 59.9445C83.075 61.0668 84.4156 63.093 84.7062 65.5H87.8C88.6297 65.5 89.3 64.7738 89.3 63.875V62.25C89.3 60.4574 87.9547 59 86.3 59ZM74.3 59C77.2015 59 79.55 56.4559 79.55 53.3125C79.55 50.1691 77.2015 47.625 74.3 47.625C71.3984 47.625 69.05 50.1691 69.05 53.3125C69.05 56.4559 71.3984 59 74.3 59ZM77.9 60.625H77.5109C76.5359 61.1328 75.4531 61.4375 74.3 61.4375C73.1469 61.4375 72.0687 61.1328 71.0891 60.625H70.7C67.7187 60.625 65.3 63.2453 65.3 66.475V67.9375C65.3 69.2832 66.3078 70.375 67.55 70.375H81.05C82.2922 70.375 83.3 69.2832 83.3 67.9375V66.475C83.3 63.2453 80.8812 60.625 77.9 60.625ZM67.4141 59.9445C66.8703 59.3605 66.125 59 65.3 59H62.3C60.6453 59 59.3 60.4574 59.3 62.25V63.875C59.3 64.7738 59.9703 65.5 60.8 65.5H63.8891C64.1844 63.093 65.525 61.0668 67.4141 59.9445Z" fill="#0B7077"/>
</g>
<defs>
<filter id="filter0_d_5_7291" x="0.299988" y="0" width="148" height="148" filterUnits="userSpaceOnUse" color-interpolation-filters="sRGB">
<feFlood flood-opacity="0" result="BackgroundImageFix"/>
<feColorMatrix in="SourceAlpha" type="matrix" values="0 0 0 0 0 0 0 0 0 0 0 0 0 0 0 0 0 0 127 0" result="hardAlpha"/>
<feOffset dy="15"/>
<feGaussianBlur stdDeviation="22"/>
<feColorMatrix type="matrix" values="0 0 0 0 0.0509804 0 0 0 0 0.0588235 0 0 0 0 0.109804 0 0 0 0.12 0"/>
<feBlend mode="normal" in2="BackgroundImageFix" result="effect1_dropShadow_5_7291"/>
<feBlend mode="normal" in="SourceGraphic" in2="effect1_dropShadow_5_7291" result="shape"/>
</filter>
<clipPath id="clip0_5_7291">
<rect width="30" height="26" fill="white" transform="translate(59.3 46)"/>
</clipPath>
</defs>
</svg>
