<svg width="24" height="25" viewBox="0 0 24 25" fill="none" xmlns="http://www.w3.org/2000/svg">
<path fill-rule="evenodd" clip-rule="evenodd" d="M8.53162 3.62378C10.7165 2.35429 13.402 2.37647 15.5664 3.68191C17.7095 5.01393 19.012 7.39119 18.9998 9.94846C18.95 12.4889 17.5533 14.877 15.8075 16.7231C14.7998 17.7934 13.6726 18.7398 12.4488 19.5431C12.3228 19.6159 12.1848 19.6647 12.0415 19.687C11.9036 19.6811 11.7693 19.6404 11.6508 19.5685C9.78243 18.3616 8.14334 16.821 6.81233 15.021C5.69859 13.5184 5.06584 11.703 5 9.82143C4.99856 7.25926 6.34677 4.89328 8.53162 3.62378ZM9.79427 10.8818C10.1618 11.7878 11.0293 12.3788 11.9917 12.3789C12.6222 12.3834 13.2283 12.1308 13.6749 11.6775C14.1215 11.2241 14.3716 10.6076 14.3694 9.96539C14.3727 8.98504 13.7956 8.09932 12.9074 7.72178C12.0192 7.34424 10.9952 7.54936 10.3134 8.24135C9.6317 8.93335 9.42675 9.97573 9.79427 10.8818Z" fill="#0B7077"/>
<ellipse opacity="0.4" cx="12" cy="21.687" rx="5" ry="1" fill="#0B7077"/>
</svg>
