<svg width="103" height="21" viewBox="0 0 103 21" fill="none" xmlns="http://www.w3.org/2000/svg">
<path d="M15.2294 13.3799C15.2294 15.4799 14.4894 17.2799 13.0094 18.7799C11.5294 20.2599 9.73943 20.9999 7.63943 20.9999C5.53943 20.9999 3.73943 20.2599 2.23943 18.7799C0.759434 17.2799 0.0194336 15.4799 0.0194336 13.3799C0.0194336 11.2799 0.759434 9.48994 2.23943 8.00994C3.73943 6.52994 5.53943 5.78994 7.63943 5.78994C9.73943 5.78994 11.5294 6.52994 13.0094 8.00994C14.4894 9.48994 15.2294 11.2799 15.2294 13.3799ZM10.1294 13.3799C10.1294 12.6799 9.88943 12.0899 9.40943 11.6099C8.92943 11.1299 8.33943 10.8899 7.63943 10.8899C6.93943 10.8899 6.33943 11.1399 5.83943 11.6399C5.35943 12.1199 5.11943 12.6999 5.11943 13.3799C5.11943 14.0599 5.36943 14.6499 5.86943 15.1499C6.36943 15.6499 6.95943 15.8999 7.63943 15.8999C8.31943 15.8999 8.89943 15.6599 9.37943 15.1799C9.87943 14.6799 10.1294 14.0799 10.1294 13.3799ZM31.7557 18.4499C31.7557 19.1499 31.5057 19.7499 31.0057 20.2499C30.5057 20.7499 29.9057 20.9999 29.2057 20.9999C28.5057 20.9999 27.9057 20.7499 27.4057 20.2499C26.9057 19.7499 26.6557 19.1499 26.6557 18.4499V13.3799C26.6557 12.6799 26.4057 12.0899 25.9057 11.6099C25.4257 11.1099 24.8457 10.8599 24.1657 10.8599C23.4857 10.8599 22.8957 11.1099 22.3957 11.6099C21.8957 12.0899 21.6457 12.6799 21.6457 13.3799V18.4499C21.6457 19.1499 21.3957 19.7499 20.8957 20.2499C20.3957 20.7499 19.7957 20.9999 19.0957 20.9999C18.3957 20.9999 17.7957 20.7499 17.2957 20.2499C16.7957 19.7499 16.5457 19.1499 16.5457 18.4499V13.3799C16.5457 11.2799 17.2857 9.48994 18.7657 8.00994C20.2657 6.50994 22.0657 5.75994 24.1657 5.75994C26.2657 5.75994 28.0557 6.50994 29.5357 8.00994C31.0157 9.48994 31.7557 11.2799 31.7557 13.3799V18.4499ZM38.3163 18.4499C38.3163 19.1499 38.0663 19.7499 37.5663 20.2499C37.0663 20.7499 36.4663 20.9999 35.7663 20.9999C35.0663 20.9999 34.4663 20.7499 33.9663 20.2499C33.4663 19.7499 33.2163 19.1499 33.2163 18.4499V3.17994C33.2163 2.47994 33.4663 1.87994 33.9663 1.37994C34.4663 0.879938 35.0663 0.629938 35.7663 0.629938C36.4663 0.629938 37.0663 0.879938 37.5663 1.37994C38.0663 1.87994 38.3163 2.47994 38.3163 3.17994V18.4499ZM54.9281 18.4499C54.9281 19.1499 54.6781 19.7499 54.1781 20.2499C53.6781 20.7499 53.0781 20.9999 52.3781 20.9999H47.3681C45.2681 20.9999 43.4681 20.2599 41.9681 18.7799C40.4681 17.2799 39.7181 15.4799 39.7181 13.3799C39.7181 11.2799 40.4581 9.48994 41.9381 8.00994C43.4381 6.50994 45.2381 5.75994 47.3381 5.75994C49.1181 5.75994 50.6981 6.30994 52.0781 7.40994C53.4581 8.50994 54.3481 9.92994 54.7481 11.6699C54.8081 11.7899 54.8381 11.9799 54.8381 12.2399C54.8381 12.9399 54.5881 13.5399 54.0881 14.0399C53.5881 14.5399 52.9881 14.7899 52.2881 14.7899C51.0281 14.7899 50.1981 14.1399 49.7981 12.8399C49.4181 11.5399 48.6081 10.8899 47.3681 10.8899C46.6681 10.8899 46.0681 11.1399 45.5681 11.6399C45.0681 12.1199 44.8181 12.6999 44.8181 13.3799C44.8181 14.0599 45.0681 14.6499 45.5681 15.1499C46.0681 15.6499 46.6581 15.8999 47.3381 15.8999H52.3481C53.0481 15.8999 53.6481 16.1499 54.1481 16.6499C54.6681 17.1499 54.9281 17.7499 54.9281 18.4499ZM71.6015 18.4499C71.6015 19.1499 71.3515 19.7499 70.8515 20.2499C70.3515 20.7499 69.7515 20.9999 69.0515 20.9999H63.9815C61.9015 20.9999 60.1115 20.2599 58.6115 18.7799C57.1115 17.2799 56.3615 15.4799 56.3615 13.3799C56.3615 11.2799 57.1015 9.48994 58.5815 8.00994C60.0815 6.52994 61.8715 5.78994 63.9515 5.78994C66.0515 5.78994 67.8515 6.52994 69.3515 8.00994C70.8515 9.48994 71.6015 11.2799 71.6015 13.3799V18.4499ZM66.5015 13.3799C66.5015 12.6999 66.2515 12.1199 65.7515 11.6399C65.2715 11.1399 64.6815 10.8899 63.9815 10.8899C63.2815 10.8899 62.6815 11.1399 62.1815 11.6399C61.7015 12.1199 61.4615 12.6999 61.4615 13.3799C61.4615 14.0799 61.7015 14.6799 62.1815 15.1799C62.6815 15.6599 63.2715 15.8999 63.9515 15.8999H66.4715L66.5015 13.3799ZM86.6787 8.30994C86.6787 9.00994 86.4287 9.60994 85.9287 10.1099C85.4287 10.6099 84.8287 10.8599 84.1287 10.8599H80.3787C79.6987 10.8599 79.1087 11.1099 78.6087 11.6099C78.1087 12.0899 77.8587 12.6799 77.8587 13.3799V18.4499C77.8587 19.1499 77.6087 19.7499 77.1087 20.2499C76.6087 20.7499 76.0087 20.9999 75.3087 20.9999C74.6087 20.9999 73.9987 20.7499 73.4787 20.2499C72.9787 19.7499 72.7287 19.1499 72.7287 18.4499V13.3799C72.7287 11.2799 73.4687 9.48994 74.9487 8.00994C76.4487 6.50994 78.2487 5.75994 80.3487 5.75994H84.0987C84.7987 5.75994 85.3987 6.00994 85.8987 6.50994C86.4187 7.00994 86.6787 7.60994 86.6787 8.30994ZM102.976 18.4499C102.976 19.1499 102.726 19.7499 102.226 20.2499C101.726 20.7499 101.126 20.9999 100.426 20.9999C99.7264 20.9999 99.1264 20.7499 98.6264 20.2499C98.1264 19.7499 97.8764 19.1499 97.8764 18.4499V13.3799C97.8764 12.6799 97.6264 12.0899 97.1264 11.6099C96.6464 11.1099 96.0664 10.8599 95.3864 10.8599C94.7064 10.8599 94.1164 11.1099 93.6164 11.6099C93.1164 12.0899 92.8664 12.6799 92.8664 13.3799V18.4499C92.8664 19.1499 92.6164 19.7499 92.1164 20.2499C91.6164 20.7499 91.0164 20.9999 90.3164 20.9999C89.6164 20.9999 89.0164 20.7499 88.5164 20.2499C88.0164 19.7499 87.7664 19.1499 87.7664 18.4499V13.3799C87.7664 11.2799 88.5064 9.48994 89.9864 8.00994C91.4864 6.50994 93.2864 5.75994 95.3864 5.75994C97.4864 5.75994 99.2764 6.50994 100.756 8.00994C102.236 9.48994 102.976 11.2799 102.976 13.3799V18.4499Z" fill="#0B7077"/>
</svg>
