<svg width="24" height="25" viewBox="0 0 24 25" fill="none" xmlns="http://www.w3.org/2000/svg">
<path opacity="0.4" d="M21.9998 12.687C21.9998 18.211 17.5228 22.687 11.9998 22.687C6.47676 22.687 1.99976 18.211 1.99976 12.687C1.99976 7.16501 6.47676 2.68701 11.9998 2.68701C17.5228 2.68701 21.9998 7.16501 21.9998 12.687Z" fill="#0B7077"/>
<path d="M15.5734 16.5013C15.4424 16.5013 15.3104 16.4673 15.1894 16.3963L11.2634 14.0543C11.0374 13.9183 10.8984 13.6733 10.8984 13.4093V8.3623C10.8984 7.9483 11.2344 7.6123 11.6484 7.6123C12.0624 7.6123 12.3984 7.9483 12.3984 8.3623V12.9833L15.9584 15.1063C16.3134 15.3193 16.4304 15.7793 16.2184 16.1353C16.0774 16.3703 15.8284 16.5013 15.5734 16.5013Z" fill="#0B7077"/>
</svg>
